
<svg xmlns="http://www.w3.org/2000/svg" viewBox="0 0 512 512" style="enable-background:new 0 0 512 512" xml:space="preserve"><path style="fill:#1f1a78" d="M19.064 370.089h85.962v89.6H19.064zM406.975 370.089h85.962v89.6h-85.962z"/><path style="fill:#db412c" d="M503.83 273.631c0-5.991-2.625-15.142-5.839-20.197l-21.831-34.38-33.618-135.026c-4.347-17.441-22.604-31.711-40.579-31.711H110.036c-17.974 0-36.232 14.271-40.579 31.711L35.84 219.054l-21.831 34.38c-3.214 5.055-5.839 14.205-5.839 20.197l55.852 30.502L8.17 334.636v57.235h135.419L256 359.135l112.411 32.735H503.83v-57.235l-55.852-30.502 55.852-30.502z"/><path style="fill:#fff" d="M430.944 219.054c14.082 0 24.42-13.227 21.018-26.893L426.13 88.407c-2.512-10.08-14.258-19.26-24.642-19.26H110.512c-10.385 0-22.13 9.18-24.641 19.257L60.038 192.162c-3.402 13.665 6.936 26.892 21.018 26.892h349.888z"/><path style="fill:#ff7945" d="M77.094 262.327c16.842 0 30.502 16.179 30.502 36.154 0 19.963-13.661 36.154-30.502 36.154H8.17v-72.309h68.924v.001zM503.83 262.327v72.309h-68.924c-16.842 0-30.502-16.192-30.502-36.154 0-19.976 13.661-36.154 30.502-36.154h68.924v-.001z"/><path style="fill:#ba250f" d="m346.624 337.348 21.787 54.523H143.589l21.787-54.523z"/><path d="M69.522 227.227h372.956a8.17 8.17 0 0 0 0-16.34H69.522a8.17 8.17 0 0 0 0 16.34z"/><path d="M504.888 249.055s-.002 0 0 0l-21.123-33.259-7.912-31.781h17.083a8.17 8.17 0 0 0 0-16.34h-21.152L450.47 82.056c-5.292-21.258-26.597-37.91-48.504-37.91H110.034c-21.906 0-43.212 16.652-48.504 37.91l-21.314 85.618H19.064a8.17 8.17 0 0 0 0 16.34h17.083l-7.912 31.781-21.123 33.26C3.058 255.441 0 265.961 0 273.525v118.346a8.17 8.17 0 0 0 8.17 8.17h2.723v59.643a8.17 8.17 0 0 0 8.17 8.17h85.963a8.17 8.17 0 0 0 8.17-8.17v-35.132a8.17 8.17 0 0 0-16.34 0v26.962H27.234v-51.472h341.147l.028.002.046-.002h116.311v51.472h-69.622v-26.962a8.17 8.17 0 0 0-16.34 0v35.132a8.17 8.17 0 0 0 8.17 8.17h85.963a8.17 8.17 0 0 0 8.17-8.17v-59.643h2.723a8.17 8.17 0 0 0 8.17-8.17V273.525c0-7.564-3.058-18.084-7.112-24.47zM16.34 273.525c0-4.458 2.177-11.946 4.567-15.709l21.834-34.378a8.21 8.21 0 0 0 1.032-2.406L77.387 86.003c3.443-13.832 18.394-25.516 32.647-25.516h291.932c14.253 0 29.205 11.686 32.647 25.517l33.614 135.026a8.16 8.16 0 0 0 1.032 2.406l21.833 34.378c2.39 3.764 4.567 11.252 4.567 15.71V383.7H373.94l-19.734-49.379a8.17 8.17 0 0 0-7.586-5.139H165.38a8.167 8.167 0 0 0-7.586 5.139L138.06 383.7H16.34V273.525zM356.343 383.7H155.657l15.258-38.177h170.171l15.257 38.177z"/><path d="M40.851 342.801h30.742c24.355 0 44.17-19.814 44.17-44.17 0-24.355-19.814-44.17-44.17-44.17H46.885a8.17 8.17 0 0 0 0 16.34h24.708c15.345 0 27.83 12.484 27.83 27.83s-12.484 27.83-27.83 27.83H40.851a8.17 8.17 0 0 0 0 16.34zM396.237 298.631c0 24.356 19.814 44.17 44.17 44.17h30.742a8.17 8.17 0 0 0 0-16.34h-30.742c-15.345 0-27.83-12.484-27.83-27.83 0-15.345 12.484-27.83 27.83-27.83h24.709a8.17 8.17 0 0 0 0-16.34h-24.709c-24.356 0-44.17 19.814-44.17 44.17z"/></svg>